Filename:
Devil CAM V2 XViD - IMAGiNE

Ripper ...........: IMAGiNE                                        IMDB Rating.......:6.6/10                            
Video Codec.......: XVID                                         Release Date......:03/10/10
Audio Codec.......:MP3                                           Theatre Date......:17/09/10
Audio Bitrate.....:128                                              Runtime.......:1h 15mn
Subtitles.........:NIL                                                 Language..........:ENGLISH
Resolution...... 720 x 288                                      IMDb URL..........:http://www.imdb.com/title/tt1314655/


DETAILS:

Video
ID                               : 0
Format                           : MPEG-4 Visual
Format profile                   : Advanced Simple@L5
Format settings, BVOP            : Yes
Format settings, QPel            : No
Format settings, GMC             : No warppoints
Format settings, Matrix          : Default (MPEG)
Muxing mode                      : Packed bitstream
Codec ID                         : XVID
Codec ID/Hint                    : XviD
Duration                         : 1h 15mn
Bit rate                         : 1 168 Kbps
Width                            : 720 pixels
Height                           : 288 pixels
Display aspect ratio             : 2.500
Frame rate                       : 25.000 fps
Resolution                       : 24 bits
Colorimetry                      : 4:2:0
Scan type                        : Progressive
Bits/(Pixel*Frame)               : 0.225
Stream size                      : 627 MiB (89%)
Writing library                  : XviD 1.2.1 (UTC 2008-12-04)

Audio
ID                               : 1
Format                           : MPEG Audio
Format version                   : Version 1
Format profile                   : Layer 3
Codec ID                         : 55
Codec ID/Hint                    : MP3
Duration                         : 1h 15mn
Bit rate mode                    : Constant
Bit rate                         : 128 Kbps
Channel(s)                       : 2 channels
Sampling rate                    : 48.0 KHz
Resolution                       : 16 bits
Video delay                      : 4ms
Stream size                      : 68.7 MiB (10%)
Alignment                        : Split accross interleaves
Interleave, duration             : 40 ms (1.00 video frame)
Interleave, preload duration     : 500 ms


SOURCES:

VIDEOevil.avi ................Thanks Relizlabs
AUDIOevil Cam XviD (2010)- HoGz ......Thanks

NOTES:

IMAGiNE bringing you another release..........Devil 2010

Well here's our v2 of this film.....much better video this time round but still the same audio.
The video was still really dark and the colours were ,well off
Anyway made a little script to change the brightness,contrast,chroma,rgbeq,white balance,sharpness etc...
Then dropped into vdub to encode it.
Now for the video we made it alot brighter than the source so the black isn't a true black but at least you can see it now.
The audio we just took off our first release and synced it to this

Anyway enjoy folks
